#!OML:ASF I:\Actors\actors\Patient Classification 1\Patient 1\Session 1\Subject1.ASF
:FULLY-SPECIFIED
:DEGREES
673
root -0.132641 17.6146 8.9633 8.79318 29.3052 -11.3041
lowerback 5.07683 4.36277 10.2682
upperback -9.07188 7.10859 -0.676221
thorax -11.4575 2.51892 -7.44308
lowerneck -5.64058 13.1268 16.9472
upperneck 21.5632 16.8239 -2.74046
head 9.458 9.07957 -1.70451
rclavicle -9.19628e-014 1.66979e-014
rhumerus -15.1958 17.4104 -78.8414
rradius 133.447
rwrist 10.8693
rhand 45.9411 -64.4598
rfingers 7.12502
rthumb 67.0968 -67.7066
lclavicle -9.19628e-014 1.66979e-014
lhumerus -11.86 -20.2884 78.2134
lradius 117.627
lwrist 5.69469
lhand 60.9241 7.63607
lfingers 7.12502
lthumb 74.7761 -28.0913
rfemur -0.700369 16.4308 31.4227
rtibia 1.65966
rfoot -28.465 -40.421
rtoes 20.7332
lfemur -15.9493 -34.2482 3.91732
ltibia 1.84828
lfoot -3.6579 23.2358
ltoes -16.9433
674
root -0.133901 17.6125 8.96856 8.55871 29.8805 -11.3651
lowerback 4.83761 4.67679 9.86638
upperback -8.92307 7.44453 -0.704645
thorax -11.103 2.74987 -7.2461
lowerneck -5.78054 12.7161 16.7834
upperneck 21.6768 16.3089 -2.96619
head 9.47157 8.81198 -1.82521
rclavicle -1.38777e-014 -7.95139e-015
rhumerus -13.8619 18.4765 -77.9261
rradius 133.46
rwrist 10.8002
rhand 45.8974 -64.1289
rfingers 7.12502
rthumb 67.0642 -67.4445
lclavicle -1.38777e-014 -7.95139e-015
lhumerus -12.8657 -19.3198 78.6596
lradius 117.797
lwrist 5.9352
lhand 61.3399 8.03239
lfingers 7.12502
lthumb 74.8377 -29.2093
rfemur -0.48717 16.2132 31.6015
rtibia 1.68514
rfoot -28.9216 -40.5521
rtoes 21.3278
lfemur -16.0094 -33.7892 3.75868
ltibia 1.87455
lfoot -2.49644 22.3185
ltoes -21.1964
675
root -0.138221 17.6098 8.97654 8.21242 30.4188 -11.461
lowerback 4.8248 5.10899 9.63483
upperback -8.84622 7.98423 -0.831677
thorax -10.907 3.04424 -7.29795
lowerneck -5.85779 12.2666 16.0547
upperneck 21.7584 15.6823 -2.53064
head 9.34261 8.51317 -1.67356
rclavicle 2.91965e-014 -7.95139e-015
rhumerus -12.6003 19.4226 -77.0192
rradius 133.36
rwrist 10.7274
rhand 45.6447 -64.023
rfingers 7.12502
rthumb 66.8749 -67.7325
lclavicle 2.91965e-014 -7.95139e-015
lhumerus -13.7487 -18.771 78.7647
lradius 117.906
lwrist 6.52728
lhand 61.4382 8.60584
lfingers 7.12502
lthumb 74.8506 -28.9956
rfemur -0.142512 16.0365 31.861
rtibia 1.68348
rfoot -29.39 -40.6977
rtoes 21.8481
lfemur -15.969 -33.5666 3.68994
ltibia 2.0148
lfoot -2.44331 21.5342
ltoes -21.8839
676
root -0.142605 17.6072 8.9837 7.91495 30.9787 -11.4396
lowerback 5.16577 5.72743 10.0438
upperback -8.96161 8.84908 -1.51406
thorax -10.9233 3.39044 -8.38977
lowerneck -6.32141 11.6024 15.7029
upperneck 22.2263 14.5502 -1.62205
head 9.38165 8.05567 -1.4443
rclavicle -1.71328e-014 2.38542e-015
rhumerus -11.8728 19.6792 -76.6655
rradius 133.215
rwrist 10.6208
rhand 45.2505 -63.9004
rfingers 7.12502
rthumb 66.5773 -68.2111
lclavicle -1.71328e-014 2.38542e-015
lhumerus -14.2674 -19.2639 78.0233
lradius 117.984
lwrist 6.84801
lhand 61.4256 8.56186
lfingers 7.12502
lthumb 74.849 -28.9936
rfemur 0.204013 15.7521 31.986
rtibia 1.68201
rfoot -29.9645 -40.7243
rtoes 22.5353
lfemur -15.9596 -33.2864 3.46689
ltibia 2.23728
lfoot -2.4459 20.6811
ltoes -22.6757
677
root -0.148525 17.6054 8.98861 7.62625 31.5681 -11.4914
lowerback 5.29536 6.19857 10.1702
upperback -8.97999 9.4826 -1.87886
thorax -10.8096 3.68022 -8.92348
lowerneck -6.68151 11.0421 15.0716
upperneck 22.6054 13.6355 -0.796309
head 9.38587 7.67239 -1.17826
rclavicle -5.0864e-014 -5.56597e-015
rhumerus -10.7166 20.5702 -76.0862
rradius 132.944
rwrist 10.2823
rhand 45.0907 -63.8251
rfingers 7.12502
rthumb 66.456 -68.3749
lclavicle -5.0864e-014 -5.56597e-015
lhumerus -14.6582 -19.2294 77.167
lradius 118.07
lwrist 6.66303
lhand 61.5928 8.3182
lfingers 7.12502
lthumb 74.8698 -29.8503
rfemur 0.41538 15.2796 32.1241
rtibia 1.75236
rfoot -30.4233 -40.6198
rtoes 23.0456
lfemur -16.084 -33.1441 3.40716
ltibia 2.52036
lfoot -2.61227 19.9843
ltoes -22.7939
678
root -0.155547 17.6046 8.9929 7.21948 32.1905 -11.7046
lowerback 5.43724 6.61718 10.331
upperback -8.99571 10.0638 -2.11012
thorax -10.7208 3.94701 -9.32521
lowerneck -7.08066 10.4879 14.4516
upperneck 22.986 12.7378 -0.0418158
head 9.41889 7.29269 -0.927691
rclavicle 2.00276e-014 7.95139e-015
rhumerus -9.47191 21.7215 -75.4135
rradius 132.575
rwrist 9.91572
rhand 45.2517 -63.903
rfingers 7.12502
rthumb 66.5782 -68.2119
lclavicle 2.00276e-014 7.95139e-015
lhumerus -14.9333 -19.0114 76.4159
lradius 118.185
lwrist 6.54033
lhand 62.0591 8.47912
lfingers 7.12502
lthumb 74.9183 -31.4075
rfemur 0.670131 14.8631 32.4323
rtibia 1.77545
rfoot -30.8216 -40.6202
rtoes 23.5537
lfemur -16.2069 -33.1155 3.52713
ltibia 2.8123
lfoot -2.88057 19.3705
ltoes -22.5316
679
root -0.161594 17.6042 8.99592 6.80122 32.8173 -11.9338
lowerback 5.57152 7.03942 10.5944
upperback -9.0185 10.6583 -2.37714
thorax -10.6022 4.21341 -9.81784
lowerneck -7.09146 9.98453 13.3889
upperneck 23.0567 11.9881 0.965572
head 9.24404 6.96798 -0.538216
rclavicle -1.59512e-013 -3.65764e-014
rhumerus -8.25298 22.9327 -74.8292
rradius 132.139
rwrist 9.75772
rhand 45.074 -63.8095
rfingers 7.12502
rthumb 66.4432 -68.3842
lclavicle -1.59512e-013 -3.65764e-014
lhumerus -14.9329 -18.896 75.4446
lradius 118.314
lwrist 6.78152
lhand 62.3856 8.79205
lfingers 7.12502
lthumb 74.944 -32.3036
rfemur 0.952919 14.4882 32.7505
rtibia 1.74091
rfoot -31.2312 -40.6558
rtoes 24.1946
lfemur -16.3061 -33.092 3.6451
ltibia 3.0722
lfoot -3.01129 18.75
ltoes -22.7941
680
root -0.166585 17.6027 8.99593 6.49567 33.3271 -12.0496
lowerback 5.61298 7.47887 10.8101
upperback -9.00268 11.2541 -2.65924
thorax -10.3756 4.49755 -10.2744
lowerneck -7.33248 9.39189 13.0773
upperneck 23.2917 11.1025 1.33353
head 9.26949 6.57998 -0.46272
rclavicle -6.40335e-014 0
rhumerus -6.85882 24.3123 -74.133
rradius 131.634
rwrist 10.0076
rhand 44.0241 -63.756
rfingers 7.12502
rthumb 65.635 -69.8389
lclavicle -6.40335e-014 0
lhumerus -14.7251 -18.9483 74.1536
lradius 118.427
lwrist 7.27625
lhand 61.773 8.98475
lfingers 7.12502
lthumb 74.8902 -29.8463
rfemur 1.12565 13.9791 32.8796
rtibia 1.77585
rfoot -31.3925 -40.541
rtoes 24.4817
lfemur -16.3532 -33.1203 3.65997
ltibia 3.21819
lfoot -2.95469 18.281
ltoes -23.4424
681
root -0.170752 17.5996 8.9936 6.2603 33.5665 -11.9363
lowerback 5.7989 7.94976 10.8712
upperback -8.98621 11.8898 -2.96176
thorax -10.236 4.80531 -10.6948
lowerneck -7.44791 8.7917 12.6483
upperneck 23.398 10.2234 1.7902
head 9.22062 6.19139 -0.347581
rclavicle 2.29348e-014 4.05521e-014
rhumerus -5.3399 25.8833 -73.28
rradius 131.036
rwrist 10.4828
rhand 43.2227 -63.5139
rfingers 7.12502
rthumb 65.0068 -70.6795
lclavicle 2.29348e-014 4.05521e-014
lhumerus -14.6195 -18.9433 73.0006
lradius 118.621
lwrist 7.49754
lhand 61.1533 8.9148
lfingers 7.12502
lthumb 74.8114 -27.6457
rfemur 1.34965 13.5196 32.7494
rtibia 1.85678
rfoot -31.3397 -40.3287
rtoes 24.5544
lfemur -16.1056 -33.5299 3.39049
ltibia 3.19925
lfoot -2.83268 18.3422
ltoes -23.858
